<?xml version="1.0" standalone="no"?>
<!DOCTYPE svg PUBLIC "-//W3C//DTD SVG 20010904//EN"
 "http://www.w3.org/TR/2001/REC-SVG-20010904/DTD/svg10.dtd">
<svg version="1.0" xmlns="http://www.w3.org/2000/svg"
 width="618.000000pt" height="618.000000pt" viewBox="0 0 618.000000 618.000000"
 preserveAspectRatio="xMidYMid meet">
<metadata>
Created by potrace 1.14, written by Peter Selinger 2001-2017
</metadata>
<g transform="translate(0.000000,618.000000) scale(0.100000,-0.100000)"
fill="#000000" stroke="none">
<path d="M3047 6164 c-1 -1 -65 -5 -141 -8 -77 -4 -142 -8 -145 -10 -3 -2 -28
-6 -56 -10 -111 -13 -134 -17 -225 -37 -260 -55 -488 -133 -710 -241 -147 -72
-314 -168 -403 -231 -271 -192 -481 -387 -667 -620 -8 -11 -19 -24 -25 -31
-13 -14 -63 -83 -119 -161 -72 -103 -201 -325 -188 -325 4 0 2 -4 -4 -8 -13
-9 -81 -154 -132 -282 -57 -143 -138 -424 -158 -549 -3 -18 -7 -41 -9 -50 -1
-9 -6 -41 -10 -71 -4 -30 -9 -64 -11 -75 -17 -79 -23 -479 -11 -635 7 -81 9
-99 22 -180 3 -19 8 -51 11 -70 5 -28 31 -155 49 -230 2 -8 6 -28 10 -45 4
-16 10 -41 15 -55 4 -14 11 -34 15 -45 3 -11 6 -22 7 -25 1 -14 82 -236 87
-240 3 -3 7 -12 9 -20 13 -61 224 -464 262 -500 3 -3 18 -25 34 -49 16 -25 33
-50 37 -55 5 -6 32 -43 61 -83 160 -216 430 -479 661 -641 192 -136 416 -262
599 -338 61 -25 268 -101 278 -102 3 0 12 -3 20 -6 36 -13 250 -65 290 -71 25
-4 47 -8 50 -10 3 -1 25 -6 50 -9 25 -3 56 -8 70 -10 14 -3 52 -8 85 -11 33
-4 74 -9 90 -11 47 -6 413 -6 485 0 36 4 88 9 115 12 28 3 61 7 75 9 14 1 63
10 110 18 47 9 96 18 110 21 14 2 63 14 110 26 47 12 90 23 95 24 108 27 369
128 500 193 191 95 357 198 525 326 131 101 156 123 306 272 243 242 440 517
589 820 50 103 122 272 130 305 2 8 15 48 29 88 46 134 85 295 122 502 33 189
38 602 9 830 -10 79 -38 238 -50 290 -8 30 -16 66 -18 80 -3 14 -13 52 -23 85
-10 33 -18 62 -19 65 -29 125 -208 536 -276 631 -10 15 -19 30 -19 34 0 14
-151 236 -225 330 -231 295 -515 548 -830 738 -72 44 -104 62 -187 105 -305
161 -695 282 -1018 318 -30 3 -57 7 -60 9 -11 7 -376 24 -383 19z m318 -58
c22 -3 60 -7 85 -10 147 -17 275 -40 410 -75 75 -19 202 -57 230 -68 8 -4 17
-7 20 -7 3 -1 10 -4 15 -7 6 -4 28 -12 50 -19 43 -13 79 -29 190 -81 39 -17
72 -33 75 -33 3 -1 16 -8 30 -15 14 -8 53 -29 88 -48 132 -71 383 -241 469
-318 6 -5 37 -32 69 -60 119 -103 311 -305 389 -410 16 -22 32 -42 35 -45 14
-14 190 -276 190 -283 0 -3 17 -34 38 -68 108 -181 213 -440 293 -729 11 -39
39 -172 44 -210 2 -14 6 -38 9 -55 8 -49 25 -186 31 -245 6 -72 7 -392 1 -450
-3 -25 -8 -74 -11 -110 -3 -36 -7 -75 -9 -85 -2 -11 -7 -42 -10 -70 -4 -27
-11 -63 -16 -80 -5 -16 -11 -46 -13 -65 -12 -95 -94 -361 -158 -518 -48 -115
-146 -321 -164 -342 -7 -8 -21 -31 -32 -50 -39 -71 -131 -212 -183 -279 -363
-471 -797 -801 -1326 -1012 -69 -27 -242 -85 -281 -94 -10 -2 -52 -13 -93 -25
-41 -11 -88 -22 -105 -25 -16 -3 -41 -8 -55 -10 -47 -10 -65 -13 -110 -19 -25
-3 -54 -8 -66 -10 -81 -16 -304 -27 -304 -15 0 5 24 10 53 10 28 1 66 2 82 4
812 67 1555 451 2070 1069 22 27 45 54 50 60 90 101 275 393 354 561 53 111
142 325 135 325 -3 0 0 9 6 21 6 11 13 28 16 37 2 9 17 64 34 122 28 96 63
253 76 340 3 19 7 46 10 60 4 25 9 77 19 200 20 233 0 542 -51 798 -8 42 -17
88 -20 102 -31 158 -127 425 -229 635 -172 356 -419 677 -734 955 -136 120
-401 305 -526 367 -22 11 -78 39 -124 62 -110 55 -185 89 -241 107 -25 8 -54
19 -65 24 -56 27 -322 101 -430 120 -38 7 -79 14 -90 16 -11 2 -40 7 -64 10
-25 3 -47 7 -51 9 -40 24 -686 25 -761 1 -8 -3 -36 -7 -64 -10 -27 -2 -95 -14
-150 -25 -524 -107 -989 -338 -1396 -693 -37 -32 -69 -58 -73 -58 -3 0 16 19
42 43 26 23 49 45 52 48 15 18 219 172 307 230 301 202 670 360 1018 435 68
15 177 35 215 40 25 3 56 7 70 10 14 2 66 7 115 10 50 4 91 8 93 9 4 4 386 -4
427 -9z m-2366 -849 c-13 -13 -26 -21 -29 -19 -5 4 38 42 48 42 3 0 -6 -10
-19 -23z m-51 -47 c-7 -10 -14 -17 -17 -15 -4 4 18 35 25 35 2 0 -1 -9 -8 -20z
m-35 -35 c-3 -9 -8 -14 -10 -11 -3 3 -2 9 2 15 9 16 15 13 8 -4z m-29 -30 c-4
-8 -11 -15 -16 -15 -6 0 -5 6 2 15 7 8 14 15 16 15 2 0 1 -7 -2 -15z m-24 -28
c0 -2 -12 -14 -27 -28 l-28 -24 24 28 c23 25 31 32 31 24z m-60 -70 c0 -2 -12
-14 -27 -28 l-28 -24 24 28 c23 25 31 32 31 24z m-50 -61 c0 -2 -8 -10 -17
-17 -16 -13 -17 -12 -4 4 13 16 21 21 21 13z m-87 -111 c-3 -9 -8 -14 -10 -11
-3 3 -2 9 2 15 9 16 15 13 8 -4z m-67 -93 c-17 -16 -18 -16 -5 5 7 12 15 20
18 17 3 -2 -3 -12 -13 -22z m-48 -72 c-7 -10 -14 -17 -17 -15 -4 4 18 35 25
35 2 0 -1 -9 -8 -20z m903 -4167 c13 -16 12 -17 -3 -4 -17 13 -22 21 -14 21 2
0 10 -8 17 -17z m294 -163 c3 -5 2 -10 -4 -10 -5 0 -13 5 -16 10 -3 6 -2 10 4
10 5 0 13 -4 16 -10z m75 -35 c14 -8 21 -14 15 -14 -5 0 -21 6 -35 14 -14 8
-20 14 -15 14 6 0 21 -6 35 -14z m61 -32 c13 -15 12 -15 -8 -4 -24 12 -29 21
-14 21 5 0 15 -7 22 -17z m64 -23 c3 -5 -4 -6 -15 -3 -11 3 -22 9 -25 13 -3 5
4 6 15 3 11 -3 22 -9 25 -13z m65 -30 c0 -5 -7 -7 -15 -4 -8 4 -15 8 -15 10 0
2 7 4 15 4 8 0 15 -4 15 -10z m125 -48 c-5 -5 -96 28 -110 40 -5 5 18 -1 52
-13 35 -13 61 -25 58 -27z m80 -23 c5 -5 -6 -4 -25 2 -45 15 -54 24 -15 15 17
-4 34 -12 40 -17z m133 -32 c45 -12 82 -24 82 -27 0 -4 -39 4 -87 17 -49 14
-94 25 -100 25 -7 1 -13 6 -13 11 0 5 8 6 18 2 9 -4 54 -17 100 -28z m142 -36
c0 -4 -11 -6 -25 -3 -14 2 -25 6 -25 8 0 2 11 4 25 4 14 0 25 -4 25 -9z m75
-11 c33 -5 80 -13 105 -16 24 -3 56 -8 70 -10 31 -4 242 -17 293 -18 20 0 37
-4 37 -8 0 -8 -199 -3 -260 7 -19 3 -55 7 -80 10 -73 7 -193 27 -215 35 -27
12 -20 12 50 0z m615 -52 c0 -5 -22 -8 -50 -8 -27 0 -50 3 -50 8 0 4 23 7 50
7 28 0 50 -3 50 -7z"/>
</g>
</svg>
